<svg xmlns="http://www.w3.org/2000/svg" xmlns:xlink="http://www.w3.org/1999/xlink" viewBox="497 146.2793 588 140.9097" width="417" height="99.93085867346937" x="41.5px" y="200.0346px" preserveAspectRatio="none"><defs/><style>.aD6z1nYkhcolora91319c7-ffa8-4cc2-8bd8-52c2387fa530 {fill:#FFFFFF;fill-opacity:1;}.aIptOCySncolors-0a91319c7-ffa8-4cc2-8bd8-52c2387fa530 {fill:#FFFFFF;fill-opacity:1;}.aIptOCySncolors-1a91319c7-ffa8-4cc2-8bd8-52c2387fa530 {fill:#FFFFFF;fill-opacity:1;}.aIptOCySncolors-2a91319c7-ffa8-4cc2-8bd8-52c2387fa530 {fill:#08A3D6;fill-opacity:1;}.icon3-stra91319c7-ffa8-4cc2-8bd8-52c2387fa530 {stroke:#C0777F;stroke-opacity:1;}</style><g opacity="1" transform="rotate(0 497 146.2793)">
<svg width="152" height="140.9097" x="497" y="146.2793" version="1.1" preserveAspectRatio="none" viewBox="20 25.83700180053711 159.99900817871094 148.32501220703125">
  <g transform="matrix(1 0 0 1 0 0)"><g><path d="M99.436 68.606h36.768c21.576 0 39.066 17.49 39.066 39.066v61.76l-22.694-22.694h-53.14c-21.575 0-39.066-17.49-39.066-39.066 0-21.575 17.49-39.066 39.066-39.066z" data-color="1" class="aIptOCySncolors-0a91319c7-ffa8-4cc2-8bd8-52c2387fa530"/><path d="M175.271 174.162a4.726 4.726 0 01-3.346-1.386l-21.31-21.309h-51.18c-24.148 0-43.795-19.647-43.795-43.795 0-24.15 19.647-43.796 43.795-43.796h36.768c24.15 0 43.796 19.647 43.796 43.796v61.76a4.73 4.73 0 01-4.728 4.73zM99.435 73.336c-18.932 0-34.335 15.403-34.335 34.336 0 18.932 15.403 34.335 34.335 34.335h53.14a4.73 4.73 0 013.344 1.386l14.62 14.619v-50.34c0-18.933-15.403-34.336-34.336-34.336H99.435z" data-color="2" class="aIptOCySncolors-1a91319c7-ffa8-4cc2-8bd8-52c2387fa530"/><path d="M110.242 30.568h-41.46c-24.329 0-44.052 19.723-44.052 44.051v69.641l25.59-25.59h59.921c24.329 0 44.051-19.723 44.051-44.052.002-24.327-19.721-44.05-44.05-44.05z" data-color="3" class="aIptOCySncolors-2a91319c7-ffa8-4cc2-8bd8-52c2387fa530"/><path d="M24.729 148.992a4.73 4.73 0 01-4.729-4.73V74.619c0-26.898 21.884-48.782 48.782-48.782h41.46c26.898 0 48.782 21.884 48.782 48.782s-21.884 48.782-48.782 48.782H52.281l-24.206 24.205a4.726 4.726 0 01-3.346 1.386zM68.782 35.298c-21.682 0-39.322 17.64-39.322 39.322v58.222l17.516-17.515a4.73 4.73 0 013.344-1.386h59.921c21.682 0 39.322-17.64 39.322-39.322s-17.64-39.322-39.322-39.322H68.782z" data-color="2" class="aIptOCySncolors-1a91319c7-ffa8-4cc2-8bd8-52c2387fa530"/><path d="M67.486 74.348a6.281 6.281 0 11-12.562 0 6.281 6.281 0 0112.562 0z" data-color="2" class="aIptOCySncolors-1a91319c7-ffa8-4cc2-8bd8-52c2387fa530"/><path d="M95.793 74.348a6.281 6.281 0 11-12.562 0 6.281 6.281 0 0112.562 0z" data-color="2" class="aIptOCySncolors-1a91319c7-ffa8-4cc2-8bd8-52c2387fa530"/><path d="M124.101 74.348a6.281 6.281 0 11-12.562 0 6.281 6.281 0 0112.562 0z" data-color="2" class="aIptOCySncolors-1a91319c7-ffa8-4cc2-8bd8-52c2387fa530"/></g></g>
</svg>
</g><g opacity="1" transform="rotate(0 705 192.6142)">
<svg width="380" height="48.2399" x="705" y="192.6142" version="1.1" preserveAspectRatio="none" viewBox="1.9531 -28.6719 296.0118 37.578199999999995">
  <g transform="matrix(1 0 0 1 0 0)" class="aD6z1nYkhcolora91319c7-ffa8-4cc2-8bd8-52c2387fa530"><path id="id-a91319c7-ffa8-4cc2-8bd8-52c2387fa530D6z1nYkh12" d="M4.10-26.95L4.10-26.95Q7.01-26.95 7.83-26.21Q8.65-25.47 8.65-22.99Q8.65-20.51 11.80-10.90L11.80-10.90Q12.66-8.26 13.57-8.26L13.57-8.26Q14.16-8.26 14.78-9.27Q15.39-10.27 16.33-13.53Q17.27-16.78 17.27-20.41L17.27-20.41Q17.27-21.25 16.93-22.30L16.93-22.30L16.62-23.09L16.37-23.85Q16.37-25.04 17.57-25.76Q18.77-26.48 20.05-26.48Q21.33-26.48 22.29-25.94L22.29-25.94Q23.87-25.02 23.87-24.10L23.87-24.10L23.81-23.34L23.59-22.62L23.48-21.88Q23.48-21.04 25.12-15.68Q26.76-10.33 27.19-9.33Q27.62-8.32 28.50-8.32L28.50-8.32Q29.22-8.32 29.96-10.61L29.96-10.61Q33.11-20.21 33.11-22.21L33.11-22.21Q33.11-22.91 32.97-23.89L32.97-23.89L32.77-25.25Q32.77-27.07 35.61-27.07L35.61-27.07Q36.97-27.07 37.59-26.65Q38.20-26.23 38.20-25.69Q38.20-25.16 37.52-23.96L37.52-23.96L36.97-23.14Q36.13-21.88 35.90-21.39L35.90-21.39L35.49-20.37Q34.98-19.04 33.01-12.72Q31.04-6.41 30.20-4.51Q29.36-2.62 28.58-1.98Q27.81-1.35 27.25-1.35L27.25-1.35Q25.92-1.35 24.77-4.16L24.77-4.16Q24.30-5.31 22.64-10.62Q20.98-15.92 20.51-17.07L20.51-17.07L20.16-17.79Q19.77-17.79 17.66-11.52Q15.55-5.25 14.79-3.67L14.79-3.67Q13.65-1.31 12.21-1.31L12.21-1.31L11.58-1.50Q10.66-2.01 10.06-3.29Q9.45-4.57 7.46-11.19Q5.47-17.81 4.79-19.62Q4.12-21.43 3.04-23.24Q1.95-25.06 1.95-25.49Q1.95-25.92 2.51-26.44Q3.07-26.95 4.10-26.95Z M46.05-1.02L46.05-1.02Q46.05-1.37 46.92-2.24Q47.79-3.11 47.96-4.22Q48.12-5.33 48.12-13.94Q48.12-22.54 47.79-24.90L47.79-24.90Q47.63-26.00 47.11-26.37L47.11-26.37Q45.72-27.34 45.72-27.42L45.72-27.42Q45.72-27.77 46.66-28.22Q47.59-28.67 49.68-28.67L49.68-28.67Q51.05-28.67 51.42-27.71L51.42-27.71Q51.70-27.01 51.70-24.53L51.70-24.53L51.64-22.38Q51.58-20.21 51.58-19.47L51.58-19.47Q51.58-17.17 52.22-17.17L52.22-17.17Q52.34-17.17 54.46-17.99Q56.58-18.81 58.06-18.81L58.06-18.81Q61.23-18.81 62.63-16.52L62.63-16.52Q63.77-14.65 63.77-9.57L63.77-9.57L63.75-8.11L63.73-7.38L63.71-5.20Q63.71-3.24 64-2.74Q64.29-2.25 65.12-1.65Q65.95-1.05 65.95-0.82L65.95-0.82Q65.95-0.06 63.14-0.06L63.14-0.06L62.46-0.02L60.39 0.06Q58.63 0.06 58.63-0.61L58.63-0.61Q58.63-0.92 59.26-1.70Q59.90-2.48 60.04-2.78Q60.17-3.09 60.17-5.84L60.17-5.84L60.13-7.27L60.15-9.47Q60.15-13.89 59.36-15.20Q58.57-16.50 56.94-16.50Q55.31-16.50 54.01-15.77Q52.71-15.04 52.24-13.95Q51.77-12.85 51.77-8.10Q51.77-3.34 52.02-2.83Q52.26-2.32 52.98-1.71Q53.71-1.09 53.71-0.88L53.71-0.88Q53.71-0.06 49.88-0.06Q46.05-0.06 46.05-1.02Z M75.27-24.92L75.27-24.92L75.27-25.47Q75.30-25.63 75.30-25.93Q75.30-26.23 75.95-26.88Q76.59-27.52 77.26-27.52L77.26-27.52L77.65-27.58L77.96-27.58Q78.76-27.58 79.46-27.00Q80.15-26.43 80.15-25.72L80.15-25.72L80.21-25.25L80.21-25.08L80.13-24.63Q80.13-24.04 79.42-23.46Q78.70-22.87 78.12-22.87L78.12-22.87L77.65-22.81L77.57-22.81L77.49-22.83L77.34-22.83Q77.18-22.87 77.10-22.87L77.10-22.87Q76.54-22.87 75.90-23.51Q75.27-24.14 75.27-24.92ZM76.01 0.14L74.84 0.14Q73.55 0.14 73.55-0.64L73.55-0.64Q73.55-1.15 74.56-1.61Q75.58-2.07 75.82-2.94Q76.07-3.81 76.07-9.02L76.07-9.02L76.09-9.63L76.09-10.23L76.11-10.84L76.11-12.05L76.05-13.85Q76.05-15.41 75.71-15.82Q75.36-16.23 74.37-16.50Q73.37-16.78 73.37-17.29L73.37-17.29Q73.37-17.70 73.80-17.95L73.80-17.95Q75.17-18.77 78.27-18.77L78.27-18.77Q79.41-18.77 79.60-17.97L79.60-17.97Q79.70-17.56 79.70-10.53Q79.70-3.50 79.91-2.74Q80.13-1.99 81.23-1.55Q82.34-1.11 82.34-0.76L82.34-0.76L82.34-0.55Q82.34 0.02 80.64 0.02L80.64 0.02Q80.05 0.06 79.78 0.06L79.78 0.06L78.90 0.08L78.04 0.08L76.01 0.14Z M103.68-5.33L103.68-5.33L103.68-4.80Q103.68-3.85 103.17-2.80Q102.66-1.76 101.63-1.04L101.63-1.04Q99.70 0.33 96.86 0.33L96.86 0.33L96.34 0.33Q92.66 0.33 90.73-0.68L90.73-0.68Q89.81-1.17 89.81-3.03L89.81-3.03L89.81-3.50Q89.81-5.51 90.89-5.51L90.89-5.51Q91.39-5.51 92.21-4.13Q93.04-2.75 93.62-2.29L93.62-2.29Q94.79-1.35 96.69-1.35Q98.58-1.35 99.47-2.17Q100.36-2.99 100.36-4.21Q100.36-5.43 99.15-6.37L99.15-6.37Q98.41-6.93 95.51-8.17Q92.61-9.41 91.42-10.63Q90.24-11.86 90.24-13.96Q90.24-16.07 92.06-17.52Q93.88-18.96 96.67-18.96L96.67-18.96L97.20-18.96Q100.83-18.96 102.25-18.05L102.25-18.05Q102.90-17.64 102.90-16.05L102.90-16.05Q102.90-13.75 101.75-13.75L101.75-13.75Q101.36-13.75 100.59-14.94Q99.83-16.13 99.02-16.70Q98.21-17.27 96.68-17.27Q95.14-17.27 94.29-16.56Q93.45-15.86 93.45-14.65Q93.45-13.44 94.81-12.50L94.81-12.50Q95.59-11.97 98.20-10.91Q100.81-9.84 102.04-8.77L102.04-8.77Q103.68-7.34 103.68-5.33Z M116.96-8.13L116.96-7.48Q116.96-3.89 117.60-3.03L117.60-3.03Q118.70-1.56 121.02-1.56L121.02-1.56L121.43-1.56L121.64-1.58Q121.68-1.58 121.70-1.58L121.70-1.58Q122.66-1.58 123.62-2.15L123.62-2.15Q126.47-3.83 126.47-9.39L126.47-9.39L126.45-9.63Q126.45-12.77 125.22-14.86Q123.99-16.95 121.90-16.95L121.90-16.95L121.49-16.95Q120.26-16.95 119.11-16.25Q117.95-15.55 117.46-14.57Q116.98-13.59 116.98-8.77L116.98-8.77L116.96-8.13ZM117.19 0.42Q116.88 1.11 116.88 3.22Q116.88 5.33 117.24 5.93Q117.60 6.52 118.53 7.13Q119.46 7.73 119.46 8.13L119.46 8.13Q119.46 8.91 116.39 8.91L116.39 8.91L115.39 8.91Q110.98 8.91 110.98 7.99L110.98 7.99Q110.98 7.70 111.89 6.98Q112.80 6.27 112.99 5.33L112.99 5.33Q113.44 3.14 113.44-5.55Q113.44-14.24 113.18-15.12Q112.91-16.00 111.98-16.60Q111.04-17.21 111.04-17.60L111.04-17.60Q111.04-17.81 111.35-18.03L111.35-18.03Q112.43-18.79 114.89-18.79L114.89-18.79Q115.69-18.79 116.04-18.41Q116.39-18.03 116.66-17.53Q116.94-17.03 117.17-17.03L117.17-17.03Q117.29-17.03 118.11-17.52Q118.93-18.01 120.13-18.54Q121.33-19.08 122.84-19.08L122.84-19.08L123.36-19.08Q124.52-19.06 125.86-18.52L125.86-18.52Q128.52-17.42 129.65-14.32L129.65-14.32Q130.36-12.40 130.36-10.70L130.36-10.70L130.36-9.61Q130.36-7.62 129.59-5.68L129.59-5.68Q128.13-1.95 124.79-0.64L124.79-0.64Q123.27-0.04 121.33-0.04L121.33-0.04L118.19-0.27Q117.50-0.27 117.19 0.42Z M143.48-11.07L143.48-11.07L143.98-11.07L147.71-11.33Q148.40-11.43 148.71-11.43L148.71-11.43Q150-11.43 150.51-11.93L150.51-11.93Q150.72-12.15 150.72-12.95L150.72-12.95Q150.72-14.80 149.64-16.03Q148.55-17.25 147.03-17.25L147.03-17.25L146.64-17.25Q144.88-17.25 143.51-15.72Q142.13-14.20 142.13-12.29L142.13-12.29L142.09-12.03L142.09-11.91Q142.09-11.15 142.91-11.15L142.91-11.15Q143.30-11.07 143.48-11.07ZM141.97-7.79L141.97-7.79Q141.97-5.08 143.71-3.52Q145.45-1.95 148.28-1.95L148.28-1.95Q149.45-1.95 151.37-2.83Q153.28-3.71 153.34-3.71L153.34-3.71Q154.02-3.71 154.02-3.07L154.02-3.07Q154.02-1.86 151.31-0.53L151.31-0.53Q149.45 0.37 147.34 0.37L147.34 0.37L146.89 0.37Q142.75 0.37 140.41-2.22Q138.07-4.80 138.07-8.96L138.07-8.96L138.07-9.41Q138.07-9.45 138.07-9.51L138.07-9.51Q138.07-11.23 138.75-12.97L138.75-12.97Q140.20-16.70 143.34-18.11L143.34-18.11Q145.31-18.98 146.95-18.98L146.95-18.98L147.81-18.98Q150.37-18.98 152.27-17.34L152.27-17.34Q153.28-16.46 153.85-15.12Q154.41-13.77 154.41-12.73L154.41-12.73L154.41-12.32Q154.41-10.84 153.20-10.33L153.20-10.33Q152.50-10.04 148.10-9.73Q143.69-9.41 143.14-9.26L143.14-9.26Q141.97-8.93 141.97-7.79Z M170.52-1.93Q171.58-1.39 171.58-0.68Q171.58 0.02 168.69 0.02L168.69 0.02L166.62 0.02L165.80-0.02L164.59-0.04Q162.26-0.04 162.26-0.84L162.26-0.84Q162.26-1.25 163.20-1.79Q164.14-2.32 164.44-3.18Q164.74-4.04 164.74-8.97Q164.74-13.91 164.45-14.91Q164.16-15.92 163.27-16.45Q162.38-16.97 162.38-17.40L162.38-17.40Q162.38-17.58 162.67-17.79L162.67-17.79Q163.80-18.63 166.70-18.63L166.70-18.63Q167.87-18.63 168.28-17.77L168.28-17.77Q168.96-16.35 169.12-16.35L169.12-16.35Q169.55-16.35 170.21-16.88L170.21-16.88Q172.32-18.55 174.55-18.55L174.55-18.55Q175.37-18.55 176.01-17.88Q176.66-17.21 176.66-16.36Q176.66-15.51 176.21-15.01Q175.76-14.51 175.10-14.51Q174.45-14.51 173.61-15.06Q172.77-15.61 172.03-15.61L172.03-15.61Q170.29-15.61 169.23-13.05L169.23-13.05Q168.61-11.48 168.61-7.81Q168.61-4.14 169.04-3.31Q169.47-2.48 170.52-1.93Z M223.84-18.52L223.84-18.52Q225.65-18.52 225.65-17.87L225.65-17.87L225.65-17.54Q225.65-17.50 224.93-16.30Q224.21-15.10 223.69-13.89Q223.17-12.68 221.58-7.77Q219.99-2.87 219.28-1.62Q218.56-0.37 217.39-0.37L217.39-0.37Q216.59-0.37 215.75-1.91Q214.91-3.46 213.36-7.51Q211.80-11.56 211.41-11.56L211.41-11.56Q211.22-11.56 209.33-7.16Q207.45-2.75 207.08-2.07L207.08-2.07Q206.24-0.55 205.42-0.55L205.42-0.55Q204.30-0.55 203.35-2.62L203.35-2.62Q202.80-3.79 202.21-5.70L202.21-5.70Q200.09-12.64 197.90-16.13L197.90-16.13Q197.25-17.15 197.25-17.46L197.25-17.46Q197.25-18.57 199.63-18.57Q202-18.57 202.64-18.14Q203.29-17.71 203.29-16.56L203.29-16.56L203.27-16.05L203.21-15.49Q203.21-13.20 204.56-9.45Q205.91-5.70 206.71-5.70L206.71-5.70Q207.35-5.70 208.33-8.53Q209.30-11.35 209.30-13.24L209.30-13.24Q209.30-13.89 209.08-14.92Q208.86-15.96 208.86-16.41Q208.86-16.86 209.69-17.53Q210.52-18.20 211.97-18.20Q213.43-18.20 214.38-17.07L214.38-17.07Q214.87-16.50 214.87-15.45L214.87-15.45L214.83-14.86L214.81-14.28Q214.81-12.79 216.75-7.66L216.75-7.66Q217.39-5.94 218.05-5.94L218.05-5.94Q218.89-5.94 220.13-9.51Q221.38-13.09 221.38-15.12L221.38-15.12L220.91-17.17Q220.91-18.52 223.84-18.52Z M241.90-9.02L241.90-9.02Q239.36-9.02 237.78-7.79Q236.20-6.56 236.20-5.12L236.20-5.12L236.20-4.45Q236.23-4.22 236.23-4.06L236.23-4.06Q236.23-3.13 237.06-2.48Q237.89-1.84 238.71-1.84L238.71-1.84L239.34-1.84Q240.63-1.84 242.25-2.97L242.25-2.97Q243.42-3.79 243.42-5.04L243.42-5.04Q243.46-5.27 243.46-5.39L243.46-5.39L243.50-5.90L243.50-6.50L243.52-6.88L243.52-8.22Q243.52-9.08 243.01-9.08L243.01-9.08L242.52-9.08Q242.17-9.02 241.90-9.02ZM240.24-19.02L240.24-19.02L240.73-19.02Q244.81-19.02 246.31-16.54L246.31-16.54Q247.23-15.02 247.23-9.47Q247.23-3.93 247.39-3.40L247.39-3.40Q247.64-2.52 248.50-2.23L248.50-2.23Q249.91-1.74 249.91-1.56L249.91-1.56L249.91-1.27Q249.91-0.88 249.01-0.35Q248.11 0.18 246.35 0.18L246.35 0.18Q245.34 0.18 244.52-0.71Q243.70-1.60 243.44-1.60L243.44-1.60Q243.42-1.60 241.27-0.61Q239.13 0.39 237.89 0.39L237.89 0.39L236.98 0.39Q235.10 0.39 233.82-0.93Q232.54-2.25 232.54-3.79L232.54-3.79L232.54-4.28Q232.54-6.74 234.40-8.22L234.40-8.22Q235.67-9.24 238.05-9.90L238.05-9.90Q238.32-9.98 240.20-10.38Q242.07-10.78 242.48-10.98L242.48-10.98Q243.56-11.50 243.56-13.27Q243.56-15.04 242.60-16.06Q241.64-17.09 239.98-17.09Q238.32-17.09 237.09-15.27Q235.86-13.46 234.54-13.46L234.54-13.46Q234.24-13.46 233.79-13.89Q233.34-14.32 233.34-15.23L233.34-15.23Q233.34-16.66 234.87-17.56L234.87-17.56Q237.35-19.02 240.24-19.02Z M263.20-17.79L263.20-17.79Q263.20-17.52 262.75-17.11Q262.30-16.70 262.30-16.16Q262.30-15.63 263.90-10.96Q265.49-6.29 265.93-5.32Q266.37-4.36 266.70-4.36L266.70-4.36Q266.86-4.36 267.70-6.13L267.70-6.13Q270.96-12.99 270.96-15.53L270.96-15.53Q270.96-16.17 270.27-16.94Q269.59-17.71 269.59-17.93L269.59-17.93Q269.59-18.63 273.09-18.63L273.09-18.63L273.55-18.63Q275.94-18.63 275.94-17.87L275.94-17.87Q275.94-17.29 274.90-16.64Q273.87-16.00 273.46-15.23L273.46-15.23Q273.28-14.92 271.02-9.32Q268.75-3.71 267.74-1.74Q266.74 0.23 265.65 0.23Q264.57 0.23 263.54-1.88Q262.50-3.98 260.89-8.62Q259.28-13.26 258.26-15.16L258.26-15.16Q257.71-16.17 256.66-16.75Q255.61-17.32 255.61-17.89L255.61-17.89Q255.61-18.59 259.94-18.59L259.94-18.59L261.82-18.55Q263.20-18.55 263.20-17.79Z M287.03-11.07L287.03-11.07L287.54-11.07L291.27-11.33Q291.95-11.43 292.26-11.43L292.26-11.43Q293.55-11.43 294.06-11.93L294.06-11.93Q294.27-12.15 294.27-12.95L294.27-12.95Q294.27-14.80 293.19-16.03Q292.11-17.25 290.58-17.25L290.58-17.25L290.19-17.25Q288.43-17.25 287.06-15.72Q285.68-14.20 285.68-12.29L285.68-12.29L285.64-12.03L285.64-11.91Q285.64-11.15 286.46-11.15L286.46-11.15Q286.85-11.07 287.03-11.07ZM285.52-7.79L285.52-7.79Q285.52-5.08 287.26-3.52Q289-1.95 291.83-1.95L291.83-1.95Q293.00-1.95 294.92-2.83Q296.83-3.71 296.89-3.71L296.89-3.71Q297.57-3.71 297.57-3.07L297.57-3.07Q297.57-1.86 294.86-0.53L294.86-0.53Q293.00 0.37 290.89 0.37L290.89 0.37L290.45 0.37Q286.30 0.37 283.96-2.22Q281.62-4.80 281.62-8.96L281.62-8.96L281.62-9.41Q281.62-9.45 281.62-9.51L281.62-9.51Q281.62-11.23 282.30-12.97L282.30-12.97Q283.75-16.70 286.89-18.11L286.89-18.11Q288.86-18.98 290.50-18.98L290.50-18.98L291.36-18.98Q293.92-18.98 295.82-17.34L295.82-17.34Q296.83-16.46 297.40-15.12Q297.96-13.77 297.96-12.73L297.96-12.73L297.96-12.32Q297.96-10.84 296.75-10.33L296.75-10.33Q296.05-10.04 291.65-9.73Q287.24-9.41 286.70-9.26L286.70-9.26Q285.52-8.93 285.52-7.79Z"/></g>
</svg>
</g></svg>